<svg width="25" height="27" viewBox="0 0 25 27" fill="none" xmlns="http://www.w3.org/2000/svg">
<path d="M3.28695 23.0943H21.7125C23.5249 23.0943 25 21.5539 25 19.6621V9.49357C25 7.60285 23.5285 6.06504 21.7196 6.06131L21.7449 6.06078V5.52742C21.7626 5.23412 21.5826 4.99618 21.3029 4.99618H19.5331C19.2534 4.99618 19.0274 5.23412 19.0274 5.52848V6.06078H18.3735C18.1035 4.45057 16.7574 3.2215 15.1387 3.2215H9.86084C8.24265 3.2215 6.89702 4.45057 6.62648 6.06078H3.28695C1.47457 6.06078 0 7.60072 0 9.49357V19.6621C0 21.5539 1.47457 23.0943 3.28695 23.0943ZM1.08671 9.49357C1.08671 8.23149 2.07381 7.20522 3.28695 7.20522H6.57389H7.66061L7.74505 6.06078C7.9984 5.08774 8.84643 4.36594 9.86084 4.36594H15.1387C16.1536 4.36594 17.0016 5.0872 17.2549 6.06078L17.3394 7.20522H18.4261H21.7125C22.9262 7.20522 23.9133 8.23149 23.9133 9.49357V19.6621C23.9133 20.9236 22.9262 21.9504 21.7125 21.9504H3.28695C2.07432 21.9504 1.08671 20.9236 1.08671 19.6621V9.49357ZM9.22266 6.94759H15.7015C15.9285 6.94759 16.1121 6.75436 16.1121 6.51536C16.1121 6.27636 15.9285 6.08314 15.7015 6.08314H9.22266C8.99612 6.08314 8.81205 6.27636 8.81205 6.51536C8.81205 6.75436 8.99612 6.94759 9.22266 6.94759ZM12.5005 20.9609C15.883 20.9609 18.6355 18.0641 18.6355 14.503C18.6355 10.9425 15.8835 8.04519 12.5005 8.04519C9.11748 8.04519 6.36555 10.942 6.36555 14.503C6.36555 18.0641 9.11748 20.9609 12.5005 20.9609ZM12.5005 9.12629C15.3172 9.12629 17.6084 11.5381 17.6084 14.5036C17.6084 17.4685 15.3172 19.8809 12.5005 19.8809C9.68385 19.8809 7.39209 17.469 7.39209 14.5036C7.39209 11.5381 9.68334 9.12629 12.5005 9.12629ZM9.26716 14.8634C9.26716 12.722 10.9218 10.9803 12.9561 10.9803C13.1453 10.9803 13.2985 10.819 13.2985 10.6199C13.2985 10.4208 13.1453 10.2596 12.9561 10.2596C10.545 10.2596 8.58297 12.3249 8.58297 14.8629C8.58297 15.062 8.73619 15.2232 8.92532 15.2232C9.11394 15.2238 9.26716 15.0625 9.26716 14.8634Z" fill="#40C4FF"/>
</svg>
