<svg width="11" height="9" viewBox="0 0 11 9" fill="none" xmlns="http://www.w3.org/2000/svg">
<path d="M9.34877 1.77911C9.20277 1.63312 8.97359 1.6116 8.80292 1.72789C8.15998 2.16613 4.93509 4.3698 4.5885 4.71637C4.0859 5.219 4.0859 6.03678 4.5885 6.5394C4.8398 6.79068 5.16993 6.91635 5.50002 6.91635C5.83011 6.91635 6.16021 6.79068 6.41154 6.5394C6.7581 6.19282 8.96175 2.96793 9.40001 2.32499C9.51627 2.15434 9.49476 1.92514 9.34877 1.77911ZM5.80383 5.93172C5.63632 6.09927 5.3637 6.09927 5.19619 5.93172C5.02865 5.7642 5.02863 5.49167 5.1961 5.32414C5.33077 5.19107 6.24637 4.53807 7.37288 3.75503C6.58986 4.88154 5.93686 5.7971 5.80383 5.93172Z" fill="white"/>
<path d="M1.98153 7.62647L1.45108 7.88522C1.06294 7.19252 0.859375 6.41937 0.859375 5.6279C0.859375 5.04802 0.966303 4.49262 1.16145 3.98041L1.76926 4.27196C1.8292 4.3007 1.89247 4.31433 1.9548 4.31433C2.11492 4.31433 2.26864 4.22441 2.34253 4.07037C2.44514 3.85641 2.3549 3.59973 2.14092 3.4971L1.54082 3.20925C2.28669 1.99281 3.57719 1.14471 5.07033 1.007V1.65327C5.07033 1.89059 5.2627 2.08296 5.50002 2.08296C5.73734 2.08296 5.92971 1.89059 5.92971 1.65327V1.00668C6.44164 1.05327 6.93698 1.18364 7.40721 1.39591C7.62345 1.49355 7.87798 1.39733 7.97562 1.18109C8.07327 0.96478 7.97708 0.710298 7.76078 0.612651C7.04823 0.291009 6.2876 0.127899 5.5 0.127899C4.0309 0.127899 2.64973 0.699985 1.6109 1.7388C0.572107 2.77763 0 4.1588 0 5.6279C0 6.71351 0.322223 7.76934 0.931842 8.68116C1.01395 8.80394 1.14971 8.87207 1.28932 8.87207C1.35279 8.87207 1.41707 8.85799 1.47746 8.82854L2.35832 8.39885C2.57161 8.2948 2.66017 8.03757 2.55612 7.82427C2.45208 7.611 2.19482 7.52246 1.98153 7.62647Z" fill="white"/>
<path d="M10.5152 3.36716C10.4176 3.15088 10.1632 3.05463 9.94679 3.15232C9.73051 3.24996 9.63432 3.50445 9.73197 3.72073C10.0031 4.32139 10.1406 4.96306 10.1406 5.62792C10.1406 6.42056 9.93639 7.19497 9.54711 7.88846L8.99331 7.62474C8.77909 7.52273 8.52267 7.61368 8.42062 7.82796C8.31859 8.0422 8.40958 8.29862 8.62384 8.40065L9.52619 8.83034C9.58555 8.85859 9.64848 8.8721 9.7107 8.8721C9.85035 8.8721 9.98613 8.80389 10.0681 8.68119C10.6778 7.76935 11 6.71352 11 5.62792C11 4.84032 10.8369 4.07969 10.5152 3.36716Z" fill="white"/>
</svg>
