<svg width="11" height="11" viewBox="0 0 11 11" fill="none" xmlns="http://www.w3.org/2000/svg">
<path d="M10.7045 4.78447C10.7043 4.78422 10.704 4.78397 10.7038 4.78371L6.21618 0.296753C6.02489 0.105408 5.77058 0 5.50007 0C5.22956 0 4.97524 0.105324 4.78388 0.296669L0.298641 4.78136C0.29713 4.78288 0.295619 4.78447 0.294109 4.78598C-0.0986926 5.18101 -0.0980212 5.82193 0.296039 6.21595C0.476073 6.39605 0.713852 6.50037 0.968082 6.51128C0.978405 6.51228 0.988813 6.51279 0.999304 6.51279H1.17816V9.81492C1.17816 10.4683 1.70987 11 2.36353 11H4.11922C4.29716 11 4.44152 10.8557 4.44152 10.6777V8.08887C4.44152 7.79069 4.68408 7.54815 4.98229 7.54815H6.01784C6.31605 7.54815 6.55862 7.79069 6.55862 8.08887V10.6777C6.55862 10.8557 6.7029 11 6.88092 11H8.6366C9.29027 11 9.82197 10.4683 9.82197 9.81492V6.51279H9.98782C10.2583 6.51279 10.5126 6.40746 10.704 6.21612C11.0985 5.82143 11.0987 5.17941 10.7045 4.78447Z" fill="white"/>
</svg>
